/* XPM */
static char * coin_xpm[] = {
"32 32 18 1",
" 	c None",
".	c #C53C46",
"+	c #FEA8E1",
"@	c #FEB7DB",
"#	c #FFE1ED",
"$	c #FAFAFA",
"%	c #FEBFD8",
"&	c #FE99E3",
"*	c #EF677A",
"=	c #FE7FBD",
"-	c #B36F1A",
";	c #D99D18",
">	c #FE82AB",
",	c #FDC245",
"'	c #FFE8D9",
")	c #FEEE79",
"!	c #FE89D5",
"~	c #FE879C",
"                                ",
"                                ",
"            ......              ",
"         ...++@+@@..            ",
"       ..@@@@@@+@@@@..          ",
"      .@@@@@#@@$#%@@@@..        ",
"     .++@@###$$$##%@@@&+.       ",
"    .*@@@@@$$@@@@@@@@@@@=.      ",
"    .*@@@#$$@+@@@@+@@##@@*.     ",
"   -;.>@@#$@@+....+@@#$#@+*.    ",
"   -;.>@@#$@@.;;;;..+@%#$@@*.   ",
"  -;;.>@@##@@.;,,,;;.@@@@#+*.   ",
"  -;;.*>+@@@+....,,,;.+@'#@=*.  ",
"  -,,.*>=@@@@.   .));.+@%%@=*.  ",
"  -,,,.*>@@@@@.  .;,;;.@@@@==*. ",
"  -,,,;.*>>@@@+.  .;;;.+@@@==*. ",
"  -,),,.*>>@@@@+.  .;.+@@@!==*. ",
"  -,)),.*>>>@@+++....+@#@@===*. ",
"  -;))).*>>>@@@%@+++++%#@+===*. ",
"   -,),.*=>>+@@##@+@@&$$@====*. ",
"   -;).*====~@+@#$%%$@@%+===*.- ",
"    -;.*=**=>@@@@$$$$@@+==***.- ",
"     .*=*..*===++++++++>=*...;- ",
"     .**.,;.*==!========*.;,,,- ",
"      ..;),.*==========*.;,,,-  ",
"        -;);.*========**.;,;-   ",
"         -;,.*=======*..;);-    ",
"          -;.*======*.;,);-     ",
"           -.***===*.;)---      ",
"             ...***.---         ",
"                ...             ",
"                                "};
