/* XPM */
static char * exit_xpm[] = {
"32 32 7 1",
" 	c None",
".	c #3DABEA",
"+	c #AB1F65",
"@	c #8CFFDE",
"#	c #E6336A",
"$	c #FFFFFF",
"%	c #000000",
"                                ",
"                                ",
"                                ",
"                                ",
"                                ",
"                                ",
"                   @$$$#        ",
"          @$$$$$$#@$$$$$#       ",
"          @$$$$$$$#$$$$$#       ",
"              @$$$$$$$$$#       ",
"              .@$$$$$$$#        ",
"     @$$$$$#  @$$$$$$#+@$$#     ",
"     @$$$$$# @$$$$$$$$#$$$#     ",
"            @$$$$$$$$$$$$#      ",
"            @$$$$$$#@$$$#       ",
"     @$$$# .@$$$$$#+.@$#        ",
"     @$$$# @$$$$$$$#            ",
"          @$$$$$$$$$#           ",
"         @$$$$#@$$$$$#          ",
"     @$$$$$$$#  @$$$$$#         ",
"     @$$$$$$#    @$$$$#         ",
"                 @$$$#          ",
"                @$$$#           ",
"               @$$$#            ",
"              @$$$#             ",
"              @$$#              ",
"                                ",
"                                ",
"                                ",
"                                ",
"                                ",
"                                "};
