/* XPM */
static char * player_xpm[] = {
"32 32 10 1",
" 	c None",
".	c #000000",
"+	c #17111A",
"@	c #682B82",
"#	c #BF3FB3",
"$	c #B2BCC2",
"%	c #FFFFFF",
"&	c #E47070",
"*	c #E14141",
"=	c #7A213A",
"        .+..             ..     ",
"        .@#@...       ...@@.    ",
"        .#@#@@@..  ...@@@@..    ",
"        .@#@@@@##..@@@@#..      ",
"         .@@@###@@@@@@..        ",
"         .@###@@@@@@..          ",
"         .###@@@@@..$$..        ",
"         .#@@@@@..$$%%%%.       ",
"        ..@@#@..$$%%%%%%.       ",
"      ..@@@@..$$%%%%%%%%%.      ",
"     .@@@@..$$%%%%++%%%%%.      ",
"      .....$%%%%%%++%%%%..      ",
"          .$%%%%%%%%%%%.&..     ",
"   .      .$%%%%%%%%%%.**&&..   ",
"  .@...    .%%%%%%%%%.*****&&.  ",
"  .#@#@.++++%%%%%%%%%%.******+  ",
"++.@#@@@@@@@..%%%%%%%%.......   ",
"+%.@@@@@@@@@#@..%%%%$+$+        ",
"+$.@@@@@#@@#@#@@.+$+$$$$+       ",
" +.@#@@@@@@@#@@@+$$$%%%%+       ",
" +.@@@@@@@@@@@@+%%%%%%%%+       ",
"  +@@@#@@@@@@@@+%%%%%%%%+       ",
"  +@@#@#@@@@@@+%%%%%%%$$+       ",
"   +@@#@@@@#@@+%%%%$$$++        ",
"    ..@@@@@@@+$$$$$+++          ",
"      .......++++++             ",
"          +=.**.                ",
"          +=.***.               ",
"           +=.***.              ",
"           +=.****.             ",
"            ++..**.             ",
"             .....              "};
